<mxfile host="app.diagrams.net" modified="2024-05-19T06:06:52.321Z" agent="Mozilla/5.0 (Macintosh; Intel Mac OS X 10_15_7) AppleWebKit/537.36 (KHTML, like Gecko) Chrome/124.0.0.0 Safari/537.36" version="24.4.4" etag="gfa_7-f3TMn9bdXlvG8j" type="github">
  <diagram name="페이지-1" id="Nfrc8EOmzx9yBUV9g187">
    <mxGraphModel>
      <root>
        <mxCell id="0" />
        <mxCell id="1" parent="0" />
      </root>
    </mxGraphModel>
  </diagram>
</mxfile>
